<?xml version="1.0" encoding="utf-8"?>
<!-- Generator: Adobe Illustrator 24.2.3, SVG Export Plug-In . SVG Version: 6.00 Build 0)  -->
<svg version="1.1" id="All" xmlns="http://www.w3.org/2000/svg" xmlns:xlink="http://www.w3.org/1999/xlink" x="0px" y="0px"
	 viewBox="0 0 820.23 311.81" style="enable-background:new 0 0 820.23 311.81;" xml:space="preserve">
<style type="text/css">
	.st0{fill:#4F9DD6;}
	.st1{fill:#04588D;}
	.st2{fill:#143652;}
	.st3{fill:#ECF2F6;}
	.st4{fill:#BBBFC2;}
	.st5{fill:#7E8182;}
</style>
<path class="st3" d="M194.87,14.17c-8.76,15.51-21.6,40.38-40.76,43.59c-7.17,1.3-14.73-0.07-21.89,1.38
	c-15.33,2.69-21,19.77-21.3,33.48c-0.47,15.24,5.17,34.86,22.74,37.07c6.04,0.92,12.43,0.09,18.48,0.84
	c14.08,1.37,23.77,13.44,31.12,24.4c-16.9,1.17-33.99,5.44-48.34,14.7c-40.74,27.03-53.23,81.91-53.56,128
	C19.02,272.34,6.71,183.57,16.4,124.73c6.33-39.09,24.95-81.7,63.83-97.69c13.98-5.84,29.26-7.77,44.3-8.27
	C147.87,18.03,172.02,20.04,194.87,14.17z"/>
<path class="st4" d="M183.26,154.94c-16.9,1.17-33.99,5.44-48.34,14.7c-40.75,27.03-53.23,81.92-53.56,128
	C22.5,265.35,18.61,156.11,48.66,103.01c11.77-21.61,30.56-37.14,55.03-41.87c12.35-2.59,25.08-2.73,37.66-2.74
	c-0.02,0-0.03,0.01-0.04,0.01c-3.06,0.02-6.11,0.13-9.09,0.74c-15.33,2.68-21,19.76-21.31,33.48c-0.46,15.24,5.17,34.86,22.74,37.07
	c6.04,0.92,12.43,0.09,18.49,0.84C166.22,131.91,175.91,143.98,183.26,154.94z"/>
<path class="st5" d="M183.26,154.94c-16.9,1.17-33.99,5.44-48.34,14.7c-40.74,27.03-53.23,81.91-53.56,128
	c-8.93-38.1-7.36-79.22,6.55-115.94c9.03-22.7,25.65-48.54,52.13-51.36c5.99-0.32,12.26-0.35,18.04,1.46
	C169.22,135.55,176.9,145.55,183.26,154.94z"/>
<path class="st3" d="M233.42,203.15v12.74h-50.16v26.67h45.25v12.47h-45.25v42.6h-14.2v-94.49H233.42z"/>
<path class="st3" d="M293.88,297.64h-14.2v-94.49h14.2V297.64z"/>
<path class="st3" d="M403.58,203.15h13.67v94.49h-16.32l-29.06-45.78c-8.58-13.54-14.73-23.67-18.45-30.39
	c0.35,11.86,0.53,27.69,0.53,47.51v28.67h-13.8v-94.49h16.32l29.2,45.78c7.34,11.59,13.49,21.76,18.45,30.52
	c-0.35-11.94-0.53-27.82-0.53-47.64V203.15z"/>
<path class="st3" d="M664.11,203.15h19.77v94.49h-13.67v-29.59c0-19.99,0.18-35.96,0.53-47.91c-1.86,5.75-4.51,13.05-7.96,21.9
	l-21.37,55.61h-11.94l-21.63-55.61c-1.42-3.8-2.79-7.45-4.11-10.95c-1.33-3.49-2.57-7.01-3.72-10.55
	c0.35,11.86,0.53,27.69,0.53,47.51v29.59h-13.67v-94.49h19.64l19.38,50.3c4.33,11.5,7.56,20.39,9.69,26.67
	c3.1-9.2,6.37-18.53,9.82-28L664.11,203.15z"/>
<path class="st3" d="M806.06,297.64h-15l-9.29-24.55h-42.47l-9.16,24.55h-14.73l36.89-94.49h16.32L806.06,297.64z M743.82,260.75
	h33.31l-1.99-5.18c-5.04-12.65-9.95-25.57-14.73-38.75c-3.27,8.85-8.14,21.76-14.6,38.75L743.82,260.75z"/>
<g>
	<g>
		<rect x="463.51" y="203.15" class="st3" width="77.1" height="12.74"/>
		<rect x="463.51" y="284.9" class="st3" width="77.1" height="12.74"/>
		<rect x="463.51" y="242.56" class="st3" width="77.1" height="12.47"/>
	</g>
</g>
</svg>
